<?xml version="1.0" encoding="utf-8"?>
<!-- Generator: Adobe Illustrator 25.2.0, SVG Export Plug-In . SVG Version: 6.00 Build 0)  -->
<svg version="1.1" id="Layer_1" xmlns="http://www.w3.org/2000/svg" xmlns:xlink="http://www.w3.org/1999/xlink" x="0px" y="0px"
	 viewBox="0 0 1000 1000" style="enable-background:new 0 0 1000 1000;" xml:space="preserve">
<style type="text/css">
	.st0{fill:#C46E63;}
	.st1{fill:#C36F63;}
</style>
<g>
	<path class="st0" d="M127.87,456.97c21,0.91,33.06,20.64,31.63,43.7c-1.6,25.81-19.27,45.58-39.31,44.71
		c-20.08-0.87-35.34-22.17-33.78-47.38c0.74-11.17,5.83-23.75,12.83-31.84l8.73,8.16c-5.87,6.7-9.87,15.91-10.39,24.33
		c-1,16.18,8.83,31.95,23.48,32.58c13.86,0.6,26.12-12.72,27.29-31.65c0.95-15.25-5.76-27.01-16.54-27.48l-0.22-0.01l-1.7,27.46
		l-10.17-0.44l2.6-41.99C123.95,456.96,125.89,456.88,127.87,456.97z"/>
	<path class="st0" d="M179.83,402.92l-33.56,15.02l-3.4,10.44l26.09,7.86l-4.35,13.33l-67.43-20.25l8.61-26.41
		c5.16-15.81,19.05-25.87,31.05-22.26c8.7,2.62,13.96,11.96,13.29,22.47l35.04-16.6L179.83,402.92z M138.44,412.39
		c2.66-8-0.3-16.24-6.33-18.06c-6.27-1.89-13.13,3.51-15.71,11.42l-4.37,13.39l22.04,6.64L138.44,412.39z"/>
	<path class="st0" d="M208.22,327.54l-22.2,36.27l5.99,10.59l-7.97,13.03l-39.66-72.02l0.44-0.71l83.77-0.05l-7.97,13.03
		L208.22,327.54z M197.23,327.46l-31.87-0.33l15.37,27.28L197.23,327.46z"/>
	<path class="st0" d="M183.58,262.34l21.18-21.49c12.26-12.44,29.75-15.46,38.91-6.71c8.98,8.58,6.27,25.74-5.98,38.18l-11.24,11.4
		l17.48,16.7l-9.94,10.09L183.58,262.34z M233.67,244.17c-4.82-4.6-14.26-2.72-21.06,4.18l-11.24,11.4l17.23,16.46l11.27-11.37
		C236.7,257.98,238.39,248.68,233.67,244.17z"/>
	<path class="st0" d="M302.17,166.64l38.16,58.12l-11.92,7.71l-16.12-24.55l-32.88,21.28l16.12,24.55l-11.87,7.68l-38.16-58.12
		l11.87-7.68l16.09,24.52l32.88-21.28l-16.1-24.52L302.17,166.64z"/>
	<path class="st0" d="M326.31,156l12.98-5.75l28.12,63.54l-12.98,5.75L326.31,156z"/>
	<path class="st0" d="M367.85,174.38c-4.92-18.96,11.49-40.37,36.04-46.94c11.36-2.91,22.78-2,33.02,2.14l-5.81,10.44
		c-7.35-3.08-16.13-4.07-24.69-1.78c-15.82,4.24-28.17,18.98-24.67,32.47c3.52,13.57,21.58,19.94,37.25,15.74
		c8.94-2.4,15.75-7.88,20.57-14.09l10.12,6.4c-6.05,7.74-14.5,14.69-27.51,18.18C397.41,203.57,372.79,193.38,367.85,174.38z"/>
	<path class="st0" d="M566.54,153.69c-1.57,21.39-20.34,33.78-48.9,32.24l-25.6-1.38l5.11-69.66l25.6,1.38
		C551.31,117.77,568.12,132.12,566.54,153.69z M552.27,152.87c1.08-14.78-10.62-24.7-30.37-25.76l-11.49-0.62l-3.51,47.93
		l11.66,0.63C538.19,176.1,551.19,167.57,552.27,152.87z"/>
	<path class="st0" d="M603.5,137.83l-4.98,17.28l32.8,8.65l-3.04,10.54l-32.8-8.65l-5.37,18.66l38.02,10.03l-3.04,10.54
		l-51.62-13.62l19.42-67.43l51.62,13.62l-3,10.42L603.5,137.83z"/>
	<path class="st0" d="M637,195.8l12.81-0.87c1.15,6.63,6.46,12.61,14.22,16.27c9.07,4.27,17.63,4.11,20.03-0.7
		c2.91-5.83-5.96-14.35-13.79-21.96c-7.83-7.75-16.44-16.54-11.5-26.43c5.15-10.32,20.22-12.11,34.75-5.26
		c11.52,5.43,17.97,13.83,17.83,22.31l-11.96,0.65c-0.38-5.44-4.75-10.45-10.61-13.21c-7.42-3.5-15.12-2.68-17.35,1.77
		c-2.46,4.93,4.13,10.21,12.31,18.12c10.59,10.4,18.11,19.89,13.15,29.82c-5.58,11.18-21.6,12.52-37.98,4.8
		C645.63,214.84,637.98,205.24,637,195.8z"/>
	<path class="st0" d="M735.82,181.48l11.7,7.63l-39.79,58.39l-11.71-7.63L735.82,181.48z"/>
	<path class="st0" d="M805.37,288.16c-14.68,15.1-37.88,11.48-54.67-4.34c-18.79-17.71-22.22-43.55-8.21-57.95
		c14.04-14.44,40.58-12.2,58.93,5.1c8.1,7.7,14.39,19.55,15.94,29.95l-12.09,1.3c-1.25-8.67-5.67-17.54-11.79-23.32
		c-11.78-11.1-30.46-13.84-40.69-3.32c-9.69,9.96-7.6,27.63,6.18,40.62c11.1,10.46,24.61,12.99,32.15,5.23l0.15-0.16l-19.99-18.84
		l7.11-7.31l30.56,28.81C807.98,285.24,806.75,286.74,805.37,288.16z"/>
	<path class="st0" d="M885.39,343.11l-61.88,37.78l-0.35-0.56l10.79-72.89l-39.56,24.15l-7.3-11.81l61.8-37.73l0.37,0.61
		L838.5,355.4l39.56-24.15L885.39,343.11z"/>
	<path class="st0" d="M890.7,386.53l-17.2,5.99l10.88,31.66l-10.49,3.66l-10.88-31.66l-18.57,6.47l12.61,36.7L846.55,443
		l-17.13-49.83l67.12-23.39l17.13,49.83l-10.37,3.61L890.7,386.53z"/>
	<path class="st0" d="M855.27,502.42l24.27-27.42l-1.34-10.8L851,467.94l-1.71-13.81l70.29-9.7l3.39,27.34
		c2.03,16.37-6.38,31.18-18.89,32.89c-9.07,1.24-17.87-4.99-21.74-14.72l-24.95,29.45L855.27,502.42z M889.08,476.75
		c0.99,8.3,7.21,14.49,13.49,13.63c6.54-0.9,10.51-8.6,9.49-16.79l-1.72-13.86l-22.98,3.15L889.08,476.75z"/>
</g>
<g>
	<path class="st1" d="M264.65,736.1l-15.4-20.12l-52.1,39.76l-9.05-11.83l52.1-39.76l-15.4-20.12l9.61-7.33l39.84,52.06
		L264.65,736.1z"/>
	<path class="st1" d="M272.46,812.78l-34.25-28.79l-12.53,4.88l-12.3-10.34l84.99-32.04l0.67,0.57L282.1,836.3l-12.3-10.34
		L272.46,812.78z M274.78,801.08l6.82-33.91l-32.27,12.51L274.78,801.08z"/>
	<path class="st1" d="M357.79,860.57l-5.38,10.88l-51.01-25.38l34.44-69.59l13.28,6.6l-29.05,58.71L357.79,860.57z"/>
	<path class="st1" d="M394.1,802.91l14.09,4.61l-23.96,73.89l-14.09-4.62L394.1,802.91z"/>
	<path class="st1" d="M469.55,886.57l-44.24-6.33l-8.01,10.79l-15.89-2.27l54.88-72.27l0.87,0.12l33.01,84.84l-15.89-2.27
		L469.55,886.57z M465.31,875.4l-12.22-32.43l-20.65,27.73L465.31,875.4z"/>
	<path class="st1" d="M553.2,830.3l3.51,19.62l35.15-6.16l2.14,11.97l-35.15,6.16l3.79,21.19l40.74-7.13l2.14,11.97l-55.32,9.69
		l-13.71-76.6l55.32-9.68l2.12,11.83L553.2,830.3z"/>
	<path class="st1" d="M601.81,807.22l14.05-4.61l24.53,73.88l-14.05,4.62L601.81,807.22z"/>
	<path class="st1" d="M687,783.25l-22.58,11.29L694,853.27l-13.28,6.64l-29.57-58.73l-22.58,11.29l-5.45-10.83l58.43-29.21
		L687,783.25z"/>
	<path class="st1" d="M704.67,769.38l12.42,15.63l27.93-22.13l7.58,9.54l-27.93,22.13l13.42,16.88l32.37-25.64l7.58,9.54
		l-43.95,34.82l-48.49-61.02l43.95-34.82l7.49,9.42L704.67,769.38z"/>
	<path class="st1" d="M781.18,669.36l63.32,48.05l-0.42,0.56l-77.86,16.51l40.48,30.72l-8.93,11.78l-63.24-47.99l0.46-0.61
		l77.71-16.48l-40.48-30.72L781.18,669.36z"/>
</g>
<g>
	<g>
		<path class="st0" d="M285.05,571.4c86.53,22.61,146.41-112.23,179.64-195.69c-35.05-10.28-76.67-18.91-98.95,14.39
			c-17.89,26.72-13.87,67.01,11.32,62.08c-20.08,34.12-69.01,32.48-79.59-7.4c-12.41-45.63,23.73-90.03,70.1-100.31
			c45.64-10.69,124.5,2.47,185.48,4.52c35.78,1.23,65.72-2.06,78.5-16.44c-3.29,18.91-12.05,37-26.29,50.16
			c-32.13,27.96-71.2,15.21-109.53,0.82c-29.57,55.09-89.09,268.87-171.24,282.85C318.64,633.48,308.78,603.05,285.05,571.4z"/>
		<path class="st0" d="M623.14,452.58c-33.23-33.3,14.24-99.08,70.47-99.08c41.26,0,54.04,61.26,17.89,74.41
			c-10.22,3.7-21.18,0.82-25.56-13.98c28.11,9.04,36.15-33.71,5.84-33.71c-41.26,0-66.45,56.32-42.72,74
			c19.35,0,25.56,18.91,17.53,30.83c-8.76,13.16-27.75,3.29-34.32-13.16c-56.23,6.99-89.82,116.35-41.99,138.96
			c27.38,13.16,75.58-8.63,97.12-55.09l7.3,12.33c-23.73,54.68-82.52,94.56-121.95,94.56C471.98,662.67,503.74,464.51,623.14,452.58
			z"/>
	</g>
</g>
</svg>
